<svg width="46" height="22" viewBox="0 0 46 22" fill="none" xmlns="http://www.w3.org/2000/svg">
<path fill-rule="evenodd" clip-rule="evenodd" d="M4.08664 6.99322C4.53055 5.30926 6.04962 4.15541 7.8721 4.07945C9.45374 4.01334 14.2057 3.87599 15.41 4.41003C18.149 5.62528 17.6886 8.13449 17.8031 9.95894L21.6952 10.0148C22.5405 5.68155 19.9392 2.0358 17.1388 0.806775C14.7862 -0.226268 7.05983 -0.305369 4.66632 0.791427C2.45502 1.80479 0.39366 3.99327 0.0300293 6.99322H4.08625H4.08664Z" fill="url(#paint0_linear_53_2464)"/>
<path fill-rule="evenodd" clip-rule="evenodd" d="M17.7126 7.03731C17.2687 5.35375 15.7497 4.19949 13.9272 4.12354C12.3455 4.05742 7.59355 3.92008 6.38931 4.45411C3.65028 5.66936 4.11033 8.17858 3.9962 10.003L0.104089 10.0589C-0.741235 5.72564 1.86006 2.07989 4.6601 0.850861C7.01308 -0.182181 14.7391 -0.261283 17.1326 0.835513C19.3439 1.84888 21.4052 4.03696 21.7689 7.03731H17.7126Z" fill="url(#paint1_linear_53_2464)"/>
<path fill-rule="evenodd" clip-rule="evenodd" d="M15.889 10.0353C16.3329 11.7189 17.8519 12.8731 19.6748 12.9491C21.256 13.0152 26.0084 13.1526 27.2127 12.6185C29.9517 11.4033 29.4917 8.89406 29.6058 7.0696L33.4979 7.01372C34.3432 11.347 31.7419 14.9927 28.9419 16.2218C26.5889 17.2548 18.8629 17.3339 16.4694 16.2371C14.2581 15.2234 12.1968 13.0353 11.8331 10.0353H15.8893H15.889Z" fill="url(#paint2_linear_53_2464)"/>
<path fill-rule="evenodd" clip-rule="evenodd" d="M29.5149 9.99122C29.071 11.6748 27.5519 12.829 25.7294 12.905C24.1478 12.9711 19.3958 13.1084 18.1916 12.574C15.4525 11.3588 15.913 8.84995 15.7984 7.0255L11.9063 6.96962C11.061 11.3029 13.6623 14.9486 16.4627 16.1777C18.8153 17.2103 26.5417 17.2898 28.9352 16.193C31.1465 15.1796 33.2079 12.9916 33.5711 9.99122H29.5149Z" fill="url(#paint3_linear_53_2464)"/>
<path fill-rule="evenodd" clip-rule="evenodd" d="M27.6389 7.14869C28.0828 5.46512 29.6019 4.31087 31.4247 4.23492C33.0064 4.1688 37.7584 4.03146 38.9626 4.56549C41.7016 5.78074 41.2412 8.28956 41.3553 10.114L45.2474 10.1699C46.0928 5.83663 43.4915 2.19087 40.691 0.961847C38.3381 -0.070802 30.6121 -0.150297 28.2186 0.946499C26.0073 1.95986 23.9459 4.14795 23.5823 7.14829H27.6385L27.6389 7.14869Z" fill="url(#paint4_linear_53_2464)"/>
<path fill-rule="evenodd" clip-rule="evenodd" d="M41.2648 7.19277C40.8205 5.50921 39.3018 4.35535 37.4789 4.279C35.8973 4.21289 31.1453 4.07554 29.9411 4.60958C27.202 5.82483 27.6625 8.33404 27.548 10.1581L23.6558 10.214C22.8105 5.88071 25.4118 2.23496 28.2122 1.00593C30.5652 -0.0267155 38.2912 -0.106211 40.6847 0.990585C42.896 2.00395 44.9574 4.19203 45.3206 7.19238H41.2644L41.2648 7.19277Z" fill="url(#paint5_linear_53_2464)"/>
<path fill-rule="evenodd" clip-rule="evenodd" d="M4.08664 14.7668C4.53055 16.4508 6.04962 17.6046 7.8721 17.6806C9.45374 17.7467 14.2057 17.884 15.41 17.35C17.4713 16.4354 17.7208 14.7885 17.7665 13.2513C17.7814 12.746 17.7747 13.4969 17.8031 13.0455L21.6952 13.2946C21.8093 13.879 21.8605 12.9014 21.8569 13.4563C21.8353 17.0179 19.5614 19.8899 17.1388 20.9533C14.7862 21.9863 7.05983 22.0654 4.66632 20.9686C2.45502 19.9552 0.39366 17.7668 0.0300293 14.7668H4.08625H4.08664Z" fill="url(#paint6_linear_53_2464)"/>
<path fill-rule="evenodd" clip-rule="evenodd" d="M17.7126 14.7227C17.2687 16.4063 15.7497 17.5606 13.9272 17.6365C12.3455 17.7026 7.59355 17.84 6.38931 17.3059C3.65028 16.0907 4.11033 13.5815 3.9962 11.757L0.104089 11.7011C-0.741235 16.0344 1.86006 19.6802 4.6601 20.9092C7.01308 21.9422 14.7391 22.0213 17.1326 20.9245C19.3439 19.9112 21.4052 17.7231 21.7689 14.7227H17.7126Z" fill="url(#paint7_linear_53_2464)"/>
<path fill-rule="evenodd" clip-rule="evenodd" d="M27.8486 14.7668C28.2925 16.4508 29.8116 17.6046 31.634 17.6806C33.2157 17.7467 37.9677 17.8841 39.1719 17.35C41.9109 16.1348 41.4509 13.6256 41.565 11.8011L45.4571 11.7452C46.3024 16.0785 43.7012 19.7242 40.9011 20.9533C38.5481 21.9863 30.8222 22.0654 28.4287 20.9686C26.2174 19.9553 24.156 17.7668 23.7924 14.7668H27.8486Z" fill="url(#paint8_linear_53_2464)"/>
<path fill-rule="evenodd" clip-rule="evenodd" d="M41.4746 14.7227C41.0307 16.4063 39.5117 17.5605 37.6892 17.6365C36.1075 17.7026 31.3555 17.84 30.1513 17.3059C28.3021 16.4854 27.9109 15.0753 27.8172 13.6842C27.772 13.0148 28.0014 13.9376 27.964 13.3446L23.7047 13.4638C23.5473 14.2698 23.6709 13.2895 23.7315 14.0368C23.9956 17.3071 26.1431 19.9088 28.4225 20.9092C30.7751 21.9422 38.5014 22.0213 40.895 20.9245C43.1063 19.9112 45.1676 17.7231 45.5312 14.7227H41.475H41.4746Z" fill="url(#paint9_linear_53_2464)"/>
<defs>
<linearGradient id="paint0_linear_53_2464" x1="10.9436" y1="1.866e-05" x2="24.3266" y2="9.67257" gradientUnits="userSpaceOnUse">
<stop stop-color="#E66140"/>
<stop offset="0.811379" stop-color="#E64040"/>
</linearGradient>
<linearGradient id="paint1_linear_53_2464" x1="10.8554" y1="0.0441051" x2="24.2383" y2="9.71643" gradientUnits="userSpaceOnUse">
<stop stop-color="#E66140"/>
<stop offset="0.811379" stop-color="#E64040"/>
</linearGradient>
<linearGradient id="paint2_linear_53_2464" x1="22.7465" y1="7.01372" x2="36.1294" y2="16.686" gradientUnits="userSpaceOnUse">
<stop stop-color="#E66140"/>
<stop offset="0.811379" stop-color="#E64040"/>
</linearGradient>
<linearGradient id="paint3_linear_53_2464" x1="22.6577" y1="6.96962" x2="36.0404" y2="16.642" gradientUnits="userSpaceOnUse">
<stop stop-color="#E66140"/>
<stop offset="0.811379" stop-color="#E64040"/>
</linearGradient>
<linearGradient id="paint4_linear_53_2464" x1="34.4959" y1="0.155235" x2="47.8787" y2="9.82783" gradientUnits="userSpaceOnUse">
<stop stop-color="#E66140"/>
<stop offset="0.811379" stop-color="#E64040"/>
</linearGradient>
<linearGradient id="paint5_linear_53_2464" x1="34.4072" y1="0.199321" x2="47.7899" y2="9.87169" gradientUnits="userSpaceOnUse">
<stop stop-color="#E66140"/>
<stop offset="0.811379" stop-color="#E64040"/>
</linearGradient>
<linearGradient id="paint6_linear_53_2464" x1="10.9436" y1="13.0455" x2="22.9999" y2="23.0593" gradientUnits="userSpaceOnUse">
<stop stop-color="#E66140"/>
<stop offset="0.811379" stop-color="#E64040"/>
</linearGradient>
<linearGradient id="paint7_linear_53_2464" x1="10.8554" y1="11.7011" x2="24.2383" y2="21.3735" gradientUnits="userSpaceOnUse">
<stop stop-color="#E66140"/>
<stop offset="0.811379" stop-color="#E64040"/>
</linearGradient>
<linearGradient id="paint8_linear_53_2464" x1="34.7058" y1="11.7452" x2="48.0886" y2="21.4175" gradientUnits="userSpaceOnUse">
<stop stop-color="#E66140"/>
<stop offset="0.811379" stop-color="#E64040"/>
</linearGradient>
<linearGradient id="paint9_linear_53_2464" x1="34.5796" y1="13.3446" x2="46.2435" y2="23.4648" gradientUnits="userSpaceOnUse">
<stop stop-color="#E66140"/>
<stop offset="0.811379" stop-color="#E64040"/>
</linearGradient>
</defs>
</svg>
